<svg xmlns="http://www.w3.org/2000/svg" viewBox="0 0 24 24">
  <path d="M12.04 2a9.86 9.86 0 0 1 8.52 14.82L22 22l-5.32-1.39A9.9 9.9 0 0 1 2.14 12.04 9.91 9.91 0 0 1 12.04 2Zm0 2a7.9 7.9 0 0 0-6.71 12.07l.27.42-.82 2.98 3.05-.8.4.24A7.9 7.9 0 1 0 12.04 4Zm-3.1 3.98c.2-.02.42-.02.63-.02.16 0 .38 0 .57.43.22.52.74 1.8.8 1.93.07.14.11.3.02.48-.09.19-.14.3-.28.46-.14.16-.29.36-.42.48-.14.14-.29.29-.12.57.16.28.73 1.21 1.58 1.96 1.09.97 2 .1 2.28.06.28-.05.45-.24.62-.52.16-.28.7-1.02.89-1.37.19-.33.38-.28.64-.17.26.09 1.65.78 1.94.92.28.14.47.21.54.33.07.12.07.73-.16 1.43-.24.69-1.38 1.32-1.93 1.36-.5.03-1.12.05-1.8-.12-.42-.1-.96-.31-1.65-.61-2.9-1.25-4.79-4.15-4.94-4.34-.14-.19-1.18-1.57-1.18-3 0-1.44.75-2.14 1.02-2.43.26-.28.58-.36.78-.39Z"/>
</svg>
